<?xml version="1.0" encoding="utf-8"?>
<!-- Generator: Adobe Illustrator 27.0.1, SVG Export Plug-In . SVG Version: 6.00 Build 0)  -->
<svg version="1.1" id="Camada_1" xmlns="http://www.w3.org/2000/svg" xmlns:xlink="http://www.w3.org/1999/xlink" x="0px" y="0px"
	 viewBox="0 0 89.15 70" style="enable-background:new 0 0 89.15 70;" xml:space="preserve">
<style type="text/css">
	.st0{fill:#1E1E1C;}
	.st1{fill:#EF7B37;}
</style>
<g>
	<g>
		<path class="st0" d="M46.9,23.07c-0.76,0.43-1.61,0.65-2.54,0.65c-1.08,0-1.96-0.35-2.63-1.05c-0.67-0.7-1-1.62-1-2.77
			c0-1.18,0.37-2.14,1.11-2.89s1.68-1.13,2.82-1.13c0.83,0,1.52,0.13,2.08,0.4v0.98c-0.61-0.39-1.34-0.58-2.18-0.58
			c-0.85,0-1.55,0.29-2.09,0.88c-0.54,0.59-0.82,1.34-0.82,2.28c0,0.96,0.25,1.71,0.76,2.26c0.5,0.55,1.19,0.82,2.05,0.82
			c0.59,0,1.11-0.12,1.54-0.35v-2.13h-1.66v-0.8h2.55V23.07z"/>
	</g>
	<g>
		<path class="st1" d="M49.23,48.56c-0.29,0-0.55-0.04-0.78-0.12c-0.22-0.08-0.43-0.19-0.62-0.34c-0.19-0.15-0.38-0.33-0.55-0.54
			c-0.18-0.21-0.37-0.45-0.56-0.72c-0.21,0.22-0.45,0.44-0.72,0.64c-0.27,0.21-0.57,0.39-0.9,0.55c-0.33,0.16-0.69,0.29-1.08,0.38
			c-0.39,0.1-0.82,0.14-1.28,0.14c-0.56,0-1.07-0.07-1.53-0.21c-0.46-0.14-0.86-0.34-1.19-0.62c-0.33-0.27-0.59-0.61-0.77-1
			c-0.18-0.4-0.27-0.85-0.27-1.37c0-0.79,0.22-1.47,0.67-2.03c0.45-0.56,1.08-1.02,1.91-1.38c-0.15-0.11-0.31-0.25-0.46-0.4
			c-0.15-0.15-0.29-0.33-0.41-0.52c-0.12-0.19-0.22-0.41-0.29-0.64c-0.07-0.23-0.11-0.49-0.11-0.77c0-0.41,0.07-0.77,0.22-1.08
			c0.15-0.31,0.35-0.58,0.61-0.8c0.26-0.22,0.56-0.38,0.91-0.49c0.35-0.11,0.73-0.17,1.14-0.17c0.4,0,0.77,0.06,1.1,0.17
			c0.33,0.11,0.62,0.27,0.86,0.48c0.24,0.21,0.43,0.45,0.56,0.74c0.13,0.29,0.2,0.61,0.2,0.97c0,0.62-0.18,1.13-0.53,1.55
			c-0.35,0.41-0.88,0.76-1.59,1.05c0.36,0.14,0.68,0.31,0.97,0.51c0.29,0.2,0.56,0.43,0.8,0.67c0.25,0.25,0.47,0.51,0.69,0.8
			c0.21,0.28,0.42,0.58,0.63,0.88c0.42-0.58,0.73-1.23,0.95-1.93c0.21-0.7,0.32-1.44,0.32-2.21c0-0.2-0.01-0.38-0.04-0.55
			c-0.02-0.17-0.06-0.34-0.1-0.52h1.23c0.04,0.17,0.07,0.33,0.07,0.48c0.01,0.15,0.02,0.33,0.03,0.55c0,0.47-0.05,0.94-0.15,1.42
			c-0.1,0.48-0.23,0.94-0.39,1.38c-0.17,0.45-0.36,0.87-0.58,1.27c-0.22,0.4-0.45,0.77-0.69,1.11c0.18,0.25,0.35,0.46,0.5,0.65
			c0.15,0.18,0.3,0.34,0.45,0.46c0.15,0.12,0.31,0.22,0.47,0.28c0.16,0.06,0.35,0.09,0.55,0.09c0.15,0,0.31-0.02,0.47-0.06
			c0.16-0.04,0.33-0.09,0.5-0.15v1.18c-0.19,0.07-0.38,0.13-0.58,0.16S49.43,48.56,49.23,48.56z M42.73,47.46
			c0.39,0,0.75-0.04,1.08-0.13c0.33-0.09,0.64-0.2,0.91-0.34c0.28-0.14,0.53-0.31,0.76-0.5c0.23-0.19,0.43-0.39,0.62-0.59
			c-0.32-0.49-0.61-0.91-0.87-1.26c-0.27-0.35-0.53-0.65-0.81-0.9c-0.27-0.25-0.56-0.47-0.87-0.65c-0.31-0.18-0.66-0.35-1.07-0.5
			c-0.33,0.13-0.62,0.27-0.9,0.43c-0.27,0.16-0.51,0.34-0.71,0.56c-0.2,0.21-0.36,0.46-0.47,0.75c-0.11,0.28-0.17,0.62-0.17,1
			c0,0.35,0.06,0.66,0.19,0.93c0.13,0.27,0.31,0.49,0.53,0.67c0.22,0.18,0.49,0.31,0.79,0.4C42.06,47.42,42.38,47.46,42.73,47.46z
			 M44.67,39.55c0-0.26-0.05-0.48-0.14-0.66c-0.1-0.18-0.22-0.33-0.36-0.45c-0.15-0.12-0.31-0.21-0.49-0.26
			c-0.18-0.05-0.36-0.08-0.53-0.08c-0.51,0-0.91,0.14-1.21,0.41c-0.3,0.27-0.46,0.65-0.46,1.12c0,0.21,0.03,0.41,0.1,0.6
			c0.06,0.19,0.16,0.36,0.27,0.52c0.12,0.16,0.25,0.3,0.41,0.43s0.32,0.23,0.5,0.32c0.65-0.23,1.14-0.49,1.46-0.79
			S44.67,40.01,44.67,39.55z"/>
	</g>
	<g>
		<path class="st0" d="M25.99,55.57h-2.53v7.59h-1.03v-7.59H19.9v-0.9h6.08V55.57z"/>
	</g>
	<g>
		<path class="st0" d="M65.06,63.01c-1.13,0-2.03-0.39-2.7-1.17c-0.68-0.78-1.02-1.79-1.02-3.03c0-1.34,0.34-2.41,1.04-3.2
			c0.69-0.8,1.63-1.2,2.82-1.2c1.1,0,1.98,0.39,2.65,1.16s1,1.79,1,3.03c0,1.36-0.34,2.43-1.03,3.22
			C67.13,62.62,66.21,63.01,65.06,63.01z M65.13,55.3c-0.83,0-1.51,0.32-2.03,0.95c-0.52,0.63-0.78,1.46-0.78,2.48
			c0,1.03,0.25,1.85,0.76,2.47c0.51,0.62,1.17,0.94,1.98,0.94c0.87,0,1.56-0.3,2.06-0.89c0.5-0.6,0.75-1.43,0.75-2.5
			c0-1.1-0.24-1.95-0.73-2.55C66.66,55.6,65.98,55.3,65.13,55.3z"/>
	</g>
	<g>
		<path class="st0" d="M64.14,31.24H24.56L44.35,0L64.14,31.24z M27.63,29.54h33.43L44.35,3.16L27.63,29.54z"/>
	</g>
	<g>
		<path class="st0" d="M45.62,69.99H0l26.14-41.26L45.62,69.99z M3.08,68.3h39.88L25.93,32.24L3.08,68.3z"/>
	</g>
	<g>
		<path class="st0" d="M89.15,70h-44.4l18.21-40.54L89.15,70z M47.37,68.31h38.67L63.23,33L47.37,68.31z"/>
	</g>
</g>
</svg>
